<?xml version="1.0" encoding="UTF-8" standalone="no"?>
<!DOCTYPE svg PUBLIC "-//W3C//DTD SVG 1.1//EN" "http://www.w3.org/Graphics/SVG/1.1/DTD/svg11.dtd">
<svg width="100%" height="100%" viewBox="0 0 740 228" version="1.1" xmlns="http://www.w3.org/2000/svg" xmlns:xlink="http://www.w3.org/1999/xlink" xml:space="preserve" xmlns:serif="http://www.serif.com/" style="fill-rule:evenodd;clip-rule:evenodd;stroke-linejoin:round;stroke-miterlimit:2;">
    <path d="M717.137,0L22.858,0C10.234,0 0,10.234 0,22.858L0,204.834C0,217.458 10.234,227.692 22.858,227.692L717.137,227.692C729.761,227.692 739.995,217.458 739.995,204.834L739.995,22.858C739.995,10.234 729.761,0 717.137,0Z" style="fill:white;fill-rule:nonzero;"/>
    <g transform="matrix(6.04146,0,0,6.04146,150.696,147.143)">
        <path d="M0,-10.724C-0.299,-10.275 -0.459,-9.748 -0.458,-9.208C-0.457,-8.486 -0.169,-7.793 0.342,-7.282C0.853,-6.772 1.546,-6.485 2.269,-6.485C2.808,-6.485 3.335,-6.645 3.784,-6.945C4.232,-7.244 4.582,-7.67 4.788,-8.169C4.994,-8.667 5.048,-9.216 4.943,-9.745C4.837,-10.274 4.577,-10.759 4.196,-11.141C3.814,-11.522 3.328,-11.781 2.799,-11.886C2.27,-11.991 1.721,-11.936 1.223,-11.73C0.725,-11.523 0.299,-11.173 0,-10.724M5.281,-11.225C5.68,-10.628 5.892,-9.926 5.892,-9.208C5.889,-8.247 5.506,-7.326 4.826,-6.646C4.145,-5.966 3.224,-5.584 2.262,-5.582C1.544,-5.582 0.843,-5.795 0.246,-6.194C-0.351,-6.593 -0.816,-7.16 -1.091,-7.823C-1.365,-8.487 -1.437,-9.217 -1.297,-9.921C-1.157,-10.625 -0.811,-11.271 -0.303,-11.779C0.205,-12.286 0.852,-12.632 1.556,-12.771C2.26,-12.911 2.99,-12.839 3.653,-12.563C4.316,-12.288 4.883,-11.823 5.281,-11.225M-7.843,1.977L-9.62,1.242C-9.362,1.78 -8.953,2.23 -8.444,2.539C-7.934,2.848 -7.346,3.002 -6.75,2.982C-6.155,2.962 -5.578,2.77 -5.09,2.427C-4.602,2.085 -4.225,1.608 -4.004,1.055C-3.782,0.502 -3.727,-0.104 -3.844,-0.688C-3.961,-1.272 -4.246,-1.81 -4.663,-2.235C-5.081,-2.66 -5.613,-2.954 -6.195,-3.082C-6.777,-3.21 -7.384,-3.165 -7.941,-2.954L-6.108,-2.194C-5.57,-1.954 -5.147,-1.513 -4.93,-0.966C-4.712,-0.418 -4.718,0.192 -4.944,0.736C-5.17,1.28 -5.6,1.713 -6.142,1.945C-6.683,2.176 -7.294,2.186 -7.843,1.974L-7.843,1.977ZM-12.295,-16.107C-9.628,-18.569 -6.133,-19.936 -2.504,-19.938L-2.497,-19.915C0.19,-19.916 2.824,-19.167 5.108,-17.752C7.393,-16.338 9.238,-14.314 10.435,-11.908C11.632,-9.502 12.134,-6.81 11.885,-4.135C11.635,-1.459 10.645,1.094 9.024,3.237C7.403,5.38 5.216,7.028 2.709,7.996C0.202,8.965 -2.525,9.214 -5.165,8.717C-7.806,8.22 -10.256,6.996 -12.239,5.182C-14.222,3.369 -15.66,1.038 -16.39,-1.548L-10.855,0.742C-10.653,1.734 -10.089,2.616 -9.274,3.217C-8.459,3.817 -7.45,4.094 -6.443,3.994C-5.435,3.893 -4.501,3.422 -3.821,2.673C-3.14,1.923 -2.762,0.947 -2.76,-0.066L-2.76,-0.259L2.148,-3.761L2.262,-3.761C3.34,-3.761 4.393,-4.081 5.288,-4.679C6.184,-5.278 6.882,-6.129 7.295,-7.124C7.707,-8.119 7.815,-9.214 7.605,-10.271C7.394,-11.328 6.876,-12.298 6.114,-13.06C5.352,-13.822 4.382,-14.34 3.325,-14.551C2.268,-14.761 1.173,-14.653 0.178,-14.241C-0.817,-13.828 -1.668,-13.13 -2.267,-12.234C-2.865,-11.339 -3.185,-10.286 -3.185,-9.208L-3.185,-9.151L-6.627,-4.164L-6.855,-4.164C-7.676,-4.164 -8.478,-3.916 -9.154,-3.451L-16.894,-6.653C-16.603,-10.27 -14.961,-13.646 -12.295,-16.107" style="fill:rgb(35,31,32);"/>
    </g>
    <g transform="matrix(1,0,0,1,17.7753,1.96507)">
        <g transform="matrix(72,0,0,72,667.946,86.4991)">
        </g>
        <text x="276.974px" y="86.499px" style="font-family:'ArialMT', 'Arial';font-size:72px;fill:rgb(35,31,32);">A<tspan x="323.696px 359.696px " y="86.499px 86.499px ">va</tspan>ilable on</text>
    </g>
    <g transform="matrix(6.13457,0,0,6.13457,671.528,186.814)">
        <path d="M0,-8.554L-0.258,-8.554L-0.264,-9.024L0,-9.024C0.202,-9.024 0.274,-8.936 0.274,-8.799C0.274,-8.764 0.267,-8.73 0.252,-8.698C0.238,-8.667 0.217,-8.639 0.191,-8.616C0.165,-8.593 0.135,-8.575 0.102,-8.565C0.069,-8.554 0.034,-8.55 0,-8.554M0.542,-8.822C0.542,-9.044 0.411,-9.253 0.023,-9.253L-0.509,-9.256L-0.509,-7.757L-0.271,-7.757L-0.271,-8.339L0.033,-8.339L0.326,-7.757L0.624,-7.757L0.274,-8.41C0.354,-8.445 0.422,-8.503 0.47,-8.576C0.517,-8.649 0.542,-8.735 0.542,-8.822M-1.036,-7.786C-1.176,-7.99 -1.251,-8.232 -1.254,-8.479C-1.261,-8.646 -1.234,-8.813 -1.173,-8.969C-1.113,-9.125 -1.021,-9.267 -0.904,-9.386C-0.786,-9.505 -0.645,-9.598 -0.489,-9.66C-0.334,-9.722 -0.167,-9.751 0,-9.746C0.247,-9.746 0.489,-9.672 0.695,-9.535C0.901,-9.398 1.062,-9.203 1.157,-8.975C1.252,-8.746 1.278,-8.495 1.231,-8.252C1.183,-8.009 1.065,-7.786 0.891,-7.61C0.717,-7.434 0.495,-7.314 0.252,-7.264C0.01,-7.214 -0.242,-7.237 -0.471,-7.33C-0.7,-7.423 -0.897,-7.582 -1.036,-7.786M1.249,-7.641C1.415,-7.889 1.504,-8.181 1.505,-8.479C1.511,-8.679 1.477,-8.877 1.404,-9.063C1.33,-9.249 1.22,-9.418 1.079,-9.559C0.938,-9.701 0.769,-9.812 0.584,-9.886C0.398,-9.961 0.2,-9.996 0,-9.991C-0.298,-9.991 -0.59,-9.903 -0.839,-9.738C-1.087,-9.573 -1.281,-9.338 -1.395,-9.062C-1.51,-8.787 -1.541,-8.484 -1.483,-8.191C-1.426,-7.898 -1.283,-7.629 -1.072,-7.418C-0.862,-7.206 -0.593,-7.062 -0.301,-7.003C-0.008,-6.945 0.295,-6.974 0.571,-7.087C0.847,-7.201 1.083,-7.394 1.249,-7.641M-5.08,-5.645L-8.058,0.712L-9.344,0.712L-12.283,-5.589L-12.283,1.029L-14.467,1.029L-14.467,-9.853L-12.289,-9.853L-8.632,-2.001L-5.097,-9.853L-2.899,-9.853L-2.899,1.025L-5.08,1.025L-5.08,-5.645ZM-23.615,-2.899L-22.13,-7.255L-20.611,-2.899L-23.615,-2.899ZM-24.954,1.029L-24.235,-1.084L-19.988,-1.087L-19.25,1.025L-16.782,1.025L-20.977,-9.853L-23.262,-9.853L-27.344,1.029L-24.954,1.029ZM-34.379,-7.894L-34.379,-5.443L-30.018,-5.443L-30.018,-3.484L-34.379,-3.484L-34.379,-0.93L-29.319,-0.93L-29.319,1.029L-36.658,1.029L-36.658,-9.853L-29.319,-9.853L-29.319,-7.894L-34.379,-7.894ZM-42.48,1.032L-42.48,-7.894L-39.179,-7.894L-39.179,-9.853L-48.066,-9.853L-48.066,-7.894L-44.765,-7.894L-44.765,1.032L-42.48,1.032ZM-50.045,-8.972L-51.024,-7.271C-51.804,-7.798 -52.721,-8.087 -53.662,-8.103C-54.671,-8.103 -55.295,-7.689 -55.295,-6.941C-55.295,-6.173 -54.501,-5.903 -53.257,-5.479C-53.032,-5.403 -52.792,-5.321 -52.539,-5.23C-50.769,-4.603 -49.754,-3.869 -49.754,-2.246C-49.754,-0.029 -51.497,1.215 -53.998,1.215C-55.339,1.219 -56.659,0.874 -57.825,0.212L-57.12,-1.675C-56.193,-1.185 -55.164,-0.92 -54.116,-0.901C-52.794,-0.901 -52.157,-1.387 -52.157,-2.109C-52.157,-2.874 -52.978,-3.144 -54.33,-3.587L-54.332,-3.587C-54.438,-3.622 -54.548,-3.658 -54.661,-3.696C-56.427,-4.283 -57.648,-5.057 -57.648,-6.853C-57.648,-8.874 -56.016,-10.036 -53.698,-10.036C-52.399,-10.073 -51.121,-9.701 -50.045,-8.972" style="fill:rgb(35,31,32);"/>
    </g>
</svg>
